<svg width="96" height="48" viewBox="0 0 96 48" fill="none" xmlns="http://www.w3.org/2000/svg">
<path d="M0.895996 47.024V46.064C2.176 45.936 3.264 45.552 4.16 44.912C5.056 44.304 5.744 43.248 6.224 41.744C6.704 40.24 6.944 38.128 6.944 35.408V9.104C6.944 7.92 6.848 7.056 6.656 6.512C6.496 5.936 6.16 5.552 5.648 5.36C5.136 5.136 4.368 5.008 3.344 4.976V4.016C4.144 4.048 5.184 4.08 6.464 4.112C7.776 4.144 9.152 4.16 10.592 4.16C12.032 4.16 13.424 4.144 14.768 4.112C16.144 4.08 17.28 4.048 18.176 4.016V4.976C17.184 5.008 16.416 5.136 15.872 5.36C15.36 5.552 15.008 5.936 14.816 6.512C14.656 7.056 14.576 7.92 14.576 9.104V26.672C14.576 27.984 14.576 29.408 14.576 30.944C14.576 32.448 14.512 33.92 14.384 35.36C14.288 36.8 14.08 38.08 13.76 39.2C13.12 41.408 11.728 43.264 9.584 44.768C7.472 46.272 4.576 47.024 0.895996 47.024Z" fill="#141414"/>
<path d="M32.1297 12.512C34.4657 12.512 36.5137 12.944 38.2737 13.808C40.0337 14.672 41.4097 16.064 42.4017 17.984C43.3937 19.904 43.8897 22.448 43.8897 25.616C43.8897 28.784 43.3937 31.328 42.4017 33.248C41.4097 35.136 40.0337 36.512 38.2737 37.376C36.5137 38.24 34.4657 38.672 32.1297 38.672C29.8577 38.672 27.8257 38.24 26.0337 37.376C24.2737 36.512 22.8817 35.136 21.8577 33.248C20.8657 31.328 20.3697 28.784 20.3697 25.616C20.3697 22.448 20.8657 19.904 21.8577 17.984C22.8817 16.064 24.2737 14.672 26.0337 13.808C27.8257 12.944 29.8577 12.512 32.1297 12.512ZM32.1297 13.472C30.8497 13.472 29.7777 14.432 28.9137 16.352C28.0497 18.24 27.6177 21.328 27.6177 25.616C27.6177 29.904 28.0497 32.992 28.9137 34.88C29.7777 36.768 30.8497 37.712 32.1297 37.712C33.4417 37.712 34.5137 36.768 35.3457 34.88C36.2097 32.992 36.6417 29.904 36.6417 25.616C36.6417 21.328 36.2097 18.24 35.3457 16.352C34.5137 14.432 33.4417 13.472 32.1297 13.472Z" fill="#141414"/>
<path d="M53.5104 38.336C52.0704 38.336 50.8704 38.064 49.9104 37.52C48.9504 36.976 48.2464 36.256 47.7984 35.36C47.3504 34.432 47.1264 33.424 47.1264 32.336C47.1264 30.96 47.4304 29.84 48.0384 28.976C48.6784 28.112 49.4944 27.408 50.4864 26.864C51.4784 26.32 52.5184 25.872 53.6064 25.52C54.7264 25.168 55.7824 24.832 56.7744 24.512C57.7984 24.16 58.6144 23.76 59.2224 23.312C59.8624 22.832 60.1824 22.224 60.1824 21.488V17.744C60.1824 16.912 60.0384 16.176 59.7504 15.536C59.4944 14.864 59.0784 14.352 58.5024 14C57.9584 13.648 57.2384 13.472 56.3424 13.472C55.7024 13.472 55.0624 13.568 54.4224 13.76C53.7824 13.92 53.2544 14.208 52.8384 14.624C53.7344 14.944 54.4224 15.44 54.9024 16.112C55.4144 16.752 55.6704 17.488 55.6704 18.32C55.6704 19.408 55.2864 20.272 54.5184 20.912C53.7824 21.552 52.9024 21.872 51.8784 21.872C50.7264 21.872 49.8464 21.52 49.2384 20.816C48.6624 20.08 48.3744 19.2 48.3744 18.176C48.3744 17.248 48.5984 16.48 49.0464 15.872C49.5264 15.264 50.1824 14.688 51.0144 14.144C51.9104 13.632 52.9824 13.232 54.2304 12.944C55.5104 12.656 56.8864 12.512 58.3584 12.512C59.8304 12.512 61.1584 12.672 62.3424 12.992C63.5264 13.28 64.5184 13.824 65.3184 14.624C66.0544 15.36 66.5344 16.272 66.7584 17.36C66.9824 18.416 67.0944 19.76 67.0944 21.392V34.448C67.0944 35.248 67.1744 35.808 67.3344 36.128C67.4944 36.416 67.7664 36.56 68.1504 36.56C68.4384 36.56 68.7104 36.48 68.9664 36.32C69.2544 36.16 69.5584 35.968 69.8784 35.744L70.3584 36.56C69.6864 37.136 68.9024 37.584 68.0064 37.904C67.1424 38.192 66.1664 38.336 65.0784 38.336C63.8944 38.336 62.9504 38.176 62.2464 37.856C61.5424 37.504 61.0304 37.04 60.7104 36.464C60.4224 35.888 60.2784 35.216 60.2784 34.448C59.5104 35.664 58.5824 36.624 57.4944 37.328C56.4064 38 55.0784 38.336 53.5104 38.336ZM56.9184 35.264C57.5584 35.264 58.1344 35.12 58.6464 34.832C59.1904 34.512 59.7024 34 60.1824 33.296V23.456C59.8944 23.936 59.4944 24.368 58.9824 24.752C58.4704 25.136 57.9264 25.536 57.3504 25.952C56.7744 26.336 56.2144 26.768 55.6704 27.248C55.1584 27.728 54.7424 28.32 54.4224 29.024C54.1024 29.728 53.9424 30.576 53.9424 31.568C53.9424 32.816 54.2144 33.744 54.7584 34.352C55.3024 34.96 56.0224 35.264 56.9184 35.264ZM54.6144 0.272003C55.6064 0.272003 56.4384 0.432003 57.1104 0.752003C57.7824 1.072 58.3904 1.44 58.9344 1.856C59.5104 2.272 60.0864 2.64 60.6624 2.96C61.2704 3.28 61.9584 3.44 62.7264 3.44C63.3984 3.44 64.0384 3.248 64.6464 2.864C65.2864 2.448 65.8784 1.792 66.4224 0.896001L67.0944 1.232C66.5504 3.6 65.7344 5.312 64.6464 6.368C63.5904 7.392 62.4224 7.904 61.1424 7.904C60.1504 7.904 59.3024 7.744 58.5984 7.424C57.9264 7.104 57.3024 6.736 56.7264 6.32C56.1824 5.872 55.6224 5.488 55.0464 5.168C54.4704 4.848 53.7824 4.688 52.9824 4.688C52.3104 4.688 51.6544 4.896 51.0144 5.312C50.4064 5.696 49.8304 6.352 49.2864 7.28L48.6144 6.944C49.1584 4.544 49.9744 2.832 51.0624 1.808C52.1504 0.784003 53.3344 0.272003 54.6144 0.272003Z" fill="#141414"/>
<path d="M84.1141 12.512C86.4501 12.512 88.4981 12.944 90.2581 13.808C92.0181 14.672 93.3941 16.064 94.3861 17.984C95.3781 19.904 95.8741 22.448 95.8741 25.616C95.8741 28.784 95.3781 31.328 94.3861 33.248C93.3941 35.136 92.0181 36.512 90.2581 37.376C88.4981 38.24 86.4501 38.672 84.1141 38.672C81.8421 38.672 79.8101 38.24 78.0181 37.376C76.2581 36.512 74.8661 35.136 73.8421 33.248C72.8501 31.328 72.3541 28.784 72.3541 25.616C72.3541 22.448 72.8501 19.904 73.8421 17.984C74.8661 16.064 76.2581 14.672 78.0181 13.808C79.8101 12.944 81.8421 12.512 84.1141 12.512ZM84.1141 13.472C82.8341 13.472 81.7621 14.432 80.8981 16.352C80.0341 18.24 79.6021 21.328 79.6021 25.616C79.6021 29.904 80.0341 32.992 80.8981 34.88C81.7621 36.768 82.8341 37.712 84.1141 37.712C85.4261 37.712 86.4981 36.768 87.3301 34.88C88.1941 32.992 88.6261 29.904 88.6261 25.616C88.6261 21.328 88.1941 18.24 87.3301 16.352C86.4981 14.432 85.4261 13.472 84.1141 13.472Z" fill="#141414"/>
</svg>
